REM DIRINDEX 1\2\4\8,1\2\4\9,1\2\4\10,1\2\5\11,1\2\5\12,1\2\5\13,1\2\5\14,1\2\5\15,1\3\6\16,1\3\6\17,1\3\6\18,1\3\7\19,1\3\7\20,1\3\7\21,1\3\7\22,1\3\7\23
REM DIRNAME "folder01","folder02","folder03","folder04","folder05","folder06","folder07","folder08","folder09","folder10","folder11","folder12","folder13","folder14","folder15","folder16","folder17","folder18","folder19","folder20","folder21","folder22","folder23"
TITLE ""
FILE "LR_black_phrase_E_04.mp3" MP3
  TRACK 01 AUDIO
    TITLE "0:"
    INDEX 01 00:00:00
  TRACK 02 AUDIO
    TITLE "8:cjc171_00901"
    INDEX 01 00:00:12
  TRACK 03 AUDIO
    TITLE "0:"
    INDEX 01 00:01:22
  TRACK 04 AUDIO
    TITLE "9:cjc171_00902"
    INDEX 01 00:01:51
  TRACK 05 AUDIO
    TITLE "0:"
    INDEX 01 00:04:24
  TRACK 06 AUDIO
    TITLE "10:cjc171_00903"
    INDEX 01 00:05:06
  TRACK 07 AUDIO
    TITLE "0:"
    INDEX 01 00:07:53
  TRACK 08 AUDIO
    TITLE "8:cjc171_00904"
    INDEX 01 00:08:59
  TRACK 09 AUDIO
    TITLE "0:"
    INDEX 01 00:10:05
  TRACK 10 AUDIO
    TITLE "9:cjc171_00905"
    INDEX 01 00:10:32
  TRACK 11 AUDIO
    TITLE "0:"
    INDEX 01 00:12:62
  TRACK 12 AUDIO
    TITLE "10:cjc171_00906"
    INDEX 01 00:13:42
  TRACK 13 AUDIO
    TITLE "0:"
    INDEX 01 00:15:73
  TRACK 14 AUDIO
    TITLE "8:cjc171_00907"
    INDEX 01 00:17:05
  TRACK 15 AUDIO
    TITLE "0:"
    INDEX 01 00:18:22
  TRACK 16 AUDIO
    TITLE "9:cjc171_00908"
    INDEX 01 00:18:53
  TRACK 17 AUDIO
    TITLE "0:"
    INDEX 01 00:21:32
  TRACK 18 AUDIO
    TITLE "10:cjc171_00909"
    INDEX 01 00:22:12
  TRACK 19 AUDIO
    TITLE "0:"
    INDEX 01 00:24:68
  TRACK 20 AUDIO
    TITLE "8:cjc171_00910"
    INDEX 01 00:25:73
  TRACK 21 AUDIO
    TITLE "0:"
    INDEX 01 00:27:21
  TRACK 22 AUDIO
    TITLE "9:cjc171_00911"
    INDEX 01 00:27:50
  TRACK 23 AUDIO
    TITLE "0:"
    INDEX 01 00:30:06
  TRACK 24 AUDIO
    TITLE "10:cjc171_00912"
    INDEX 01 00:30:60
  TRACK 25 AUDIO
    TITLE "0:"
    INDEX 01 00:33:16
  TRACK 26 AUDIO
    TITLE "8:cjc171_00913"
    INDEX 01 00:34:19
  TRACK 27 AUDIO
    TITLE "0:"
    INDEX 01 00:35:52
  TRACK 28 AUDIO
    TITLE "9:cjc171_00914"
    INDEX 01 00:36:08
  TRACK 29 AUDIO
    TITLE "0:"
    INDEX 01 00:38:58
  TRACK 30 AUDIO
    TITLE "10:cjc171_00915"
    INDEX 01 00:39:38
  TRACK 31 AUDIO
    TITLE "0:"
    INDEX 01 00:42:13
  TRACK 32 AUDIO
    TITLE "8:cjc171_00916"
    INDEX 01 00:43:18
  TRACK 33 AUDIO
    TITLE "0:"
    INDEX 01 00:44:41
  TRACK 34 AUDIO
    TITLE "9:cjc171_00917"
    INDEX 01 00:44:72
  TRACK 35 AUDIO
    TITLE "0:"
    INDEX 01 00:47:06
  TRACK 36 AUDIO
    TITLE "10:cjc171_00918"
    INDEX 01 00:47:59
  TRACK 37 AUDIO
    TITLE "0:"
    INDEX 01 00:49:70
  TRACK 38 AUDIO
    TITLE "8:cjc171_00919"
    INDEX 01 00:50:75
  TRACK 39 AUDIO
    TITLE "0:"
    INDEX 01 00:52:21
  TRACK 40 AUDIO
    TITLE "9:cjc171_00920"
    INDEX 01 00:52:52
  TRACK 41 AUDIO
    TITLE "0:"
    INDEX 01 00:54:57
  TRACK 42 AUDIO
    TITLE "10:cjc171_00921"
    INDEX 01 00:55:39
  TRACK 43 AUDIO
    TITLE "0:"
    INDEX 01 00:57:46
  TRACK 44 AUDIO
    TITLE "8:cjc171_00922"
    INDEX 01 00:58:49
  TRACK 45 AUDIO
    TITLE "0:"
    INDEX 01 01:00:09
  TRACK 46 AUDIO
    TITLE "9:cjc171_00923"
    INDEX 01 01:00:38
  TRACK 47 AUDIO
    TITLE "0:"
    INDEX 01 01:02:41
  TRACK 48 AUDIO
    TITLE "10:cjc171_00924"
    INDEX 01 01:03:17
  TRACK 49 AUDIO
    TITLE "0:"
    INDEX 01 01:05:22
  TRACK 50 AUDIO
    TITLE "8:cjc171_00925"
    INDEX 01 01:06:23
  TRACK 51 AUDIO
    TITLE "0:"
    INDEX 01 01:07:34
  TRACK 52 AUDIO
    TITLE "9:cjc171_00926"
    INDEX 01 01:07:65
  TRACK 53 AUDIO
    TITLE "0:"
    INDEX 01 01:10:54
  TRACK 54 AUDIO
    TITLE "10:cjc171_00927"
    INDEX 01 01:11:32
  TRACK 55 AUDIO
    TITLE "0:"
    INDEX 01 01:14:24
  TRACK 56 AUDIO
    TITLE "8:cjc171_00928"
    INDEX 01 01:15:28
  TRACK 57 AUDIO
    TITLE "0:"
    INDEX 01 01:16:39
  TRACK 58 AUDIO
    TITLE "9:cjc171_00929"
    INDEX 01 01:16:66
  TRACK 59 AUDIO
    TITLE "0:"
    INDEX 01 01:19:06
  TRACK 60 AUDIO
    TITLE "10:cjc171_00930"
    INDEX 01 01:19:59
  TRACK 61 AUDIO
    TITLE "0:"
    INDEX 01 01:21:73
  TRACK 62 AUDIO
    TITLE "8:cjc171_00931"
    INDEX 01 01:22:69
  TRACK 63 AUDIO
    TITLE "0:"
    INDEX 01 01:24:38
  TRACK 64 AUDIO
    TITLE "9:cjc171_00932"
    INDEX 01 01:24:58
  TRACK 65 AUDIO
    TITLE "0:"
    INDEX 01 01:27:33
  TRACK 66 AUDIO
    TITLE "10:cjc171_00933"
    INDEX 01 01:28:03
  TRACK 67 AUDIO
    TITLE "0:"
    INDEX 01 01:30:53
  TRACK 68 AUDIO
    TITLE "8:cjc171_00934"
    INDEX 01 01:31:46
  TRACK 69 AUDIO
    TITLE "0:"
    INDEX 01 01:32:63
  TRACK 70 AUDIO
    TITLE "9:cjc171_00935"
    INDEX 01 01:33:10
  TRACK 71 AUDIO
    TITLE "0:"
    INDEX 01 01:35:56
  TRACK 72 AUDIO
    TITLE "10:cjc171_00936"
    INDEX 01 01:36:28
  TRACK 73 AUDIO
    TITLE "0:"
    INDEX 01 01:38:74
  TRACK 74 AUDIO
    TITLE "8:cjc171_00937"
    INDEX 01 01:39:73
  TRACK 75 AUDIO
    TITLE "0:"
    INDEX 01 01:41:19
  TRACK 76 AUDIO
    TITLE "9:cjc171_00938"
    INDEX 01 01:41:45
  TRACK 77 AUDIO
    TITLE "0:"
    INDEX 01 01:43:44
  TRACK 78 AUDIO
    TITLE "10:cjc171_00939"
    INDEX 01 01:44:16
  TRACK 79 AUDIO
    TITLE "0:"
    INDEX 01 01:46:15
  TRACK 80 AUDIO
    TITLE "8:cjc171_00940"
    INDEX 01 01:47:10
  TRACK 81 AUDIO
    TITLE "0:"
    INDEX 01 01:48:10
  TRACK 82 AUDIO
    TITLE "9:cjc171_00941"
    INDEX 01 01:48:39
  TRACK 83 AUDIO
    TITLE "0:"
    INDEX 01 01:50:63
  TRACK 84 AUDIO
    TITLE "10:cjc171_00942"
    INDEX 01 01:51:37
  TRACK 85 AUDIO
    TITLE "0:"
    INDEX 01 01:53:60
  TRACK 86 AUDIO
    TITLE "8:cjc171_00943"
    INDEX 01 01:54:57
  TRACK 87 AUDIO
    TITLE "0:"
    INDEX 01 01:55:70
  TRACK 88 AUDIO
    TITLE "9:cjc171_00944"
    INDEX 01 01:56:15
  TRACK 89 AUDIO
    TITLE "0:"
    INDEX 01 01:59:27
  TRACK 90 AUDIO
    TITLE "10:cjc171_00945"
    INDEX 01 01:59:72
  TRACK 91 AUDIO
    TITLE "0:"
    INDEX 01 02:03:09
  TRACK 92 AUDIO
    TITLE "8:cjc171_00946"
    INDEX 01 02:04:05
  TRACK 93 AUDIO
    TITLE "0:"
    INDEX 01 02:05:20
  TRACK 94 AUDIO
    TITLE "9:cjc171_00947"
    INDEX 01 02:05:43
  TRACK 95 AUDIO
    TITLE "0:"
    INDEX 01 02:07:68
  TRACK 96 AUDIO
    TITLE "10:cjc171_00948"
    INDEX 01 02:08:44
  TRACK 97 AUDIO
    TITLE "0:"
    INDEX 01 02:10:68
  TRACK 98 AUDIO
    TITLE "8:cjc171_00949"
    INDEX 01 02:11:65
  TRACK 99 AUDIO
    TITLE "0:"
    INDEX 01 02:13:04
  TRACK 100 AUDIO
    TITLE "9:cjc171_00950"
    INDEX 01 02:13:21
  TRACK 101 AUDIO
    TITLE "0:"
    INDEX 01 02:15:20
  TRACK 102 AUDIO
    TITLE "10:cjc171_00951"
    INDEX 01 02:15:65
  TRACK 103 AUDIO
    TITLE "0:"
    INDEX 01 02:17:62
  TRACK 104 AUDIO
    TITLE "8:cjc171_00952"
    INDEX 01 02:18:58
  TRACK 105 AUDIO
    TITLE "0:"
    INDEX 01 02:20:13
  TRACK 106 AUDIO
    TITLE "9:cjc171_00953"
    INDEX 01 02:20:41
  TRACK 107 AUDIO
    TITLE "0:"
    INDEX 01 02:22:46
  TRACK 108 AUDIO
    TITLE "10:cjc171_00954"
    INDEX 01 02:23:22
  TRACK 109 AUDIO
    TITLE "0:"
    INDEX 01 02:25:26
  TRACK 110 AUDIO
    TITLE "8:cjc171_00955"
    INDEX 01 02:26:20
  TRACK 111 AUDIO
    TITLE "0:"
    INDEX 01 02:27:15
  TRACK 112 AUDIO
    TITLE "9:cjc171_00956"
    INDEX 01 02:27:37
  TRACK 113 AUDIO
    TITLE "0:"
    INDEX 01 02:29:44
  TRACK 114 AUDIO
    TITLE "10:cjc171_00957"
    INDEX 01 02:30:14
  TRACK 115 AUDIO
    TITLE "0:"
    INDEX 01 02:32:21
  TRACK 116 AUDIO
    TITLE "8:cjc171_00958"
    INDEX 01 02:33:18
  TRACK 117 AUDIO
    TITLE "0:"
    INDEX 01 02:34:31
  TRACK 118 AUDIO
    TITLE "9:cjc171_00959"
    INDEX 01 02:34:53
  TRACK 119 AUDIO
    TITLE "0:"
    INDEX 01 02:36:73
  TRACK 120 AUDIO
    TITLE "10:cjc171_00960"
    INDEX 01 02:37:43
  TRACK 121 AUDIO
    TITLE "0:"
    INDEX 01 02:39:62
  TRACK 122 AUDIO
    TITLE "8:cjc171_00961"
    INDEX 01 02:40:61
  TRACK 123 AUDIO
    TITLE "0:"
    INDEX 01 02:42:07
  TRACK 124 AUDIO
    TITLE "9:cjc171_00962"
    INDEX 01 02:42:37
  TRACK 125 AUDIO
    TITLE "0:"
    INDEX 01 02:45:31
  TRACK 126 AUDIO
    TITLE "10:cjc171_00963"
    INDEX 01 02:46:13
  TRACK 127 AUDIO
    TITLE "0:"
    INDEX 01 02:49:05
  TRACK 128 AUDIO
    TITLE "8:cjc171_00964"
    INDEX 01 02:50:13
  TRACK 129 AUDIO
    TITLE "0:"
    INDEX 01 02:51:32
  TRACK 130 AUDIO
    TITLE "9:cjc171_00965"
    INDEX 01 02:51:63
  TRACK 131 AUDIO
    TITLE "0:"
    INDEX 01 02:54:28
  TRACK 132 AUDIO
    TITLE "10:cjc171_00966"
    INDEX 01 02:55:08
  TRACK 133 AUDIO
    TITLE "0:"
    INDEX 01 02:57:48
  TRACK 134 AUDIO
    TITLE "8:cjc171_00967"
    INDEX 01 02:58:53
  TRACK 135 AUDIO
    TITLE "0:"
    INDEX 01 03:00:05
  TRACK 136 AUDIO
    TITLE "9:cjc171_00968"
    INDEX 01 03:00:27
  TRACK 137 AUDIO
    TITLE "0:"
    INDEX 01 03:02:28
  TRACK 138 AUDIO
    TITLE "10:cjc171_00969"
    INDEX 01 03:03:03
  TRACK 139 AUDIO
    TITLE "0:"
    INDEX 01 03:05:02
  TRACK 140 AUDIO
    TITLE "8:cjc171_00970"
    INDEX 01 03:06:08
  TRACK 141 AUDIO
    TITLE "0:"
    INDEX 01 03:07:39
  TRACK 142 AUDIO
    TITLE "9:cjc171_00971"
    INDEX 01 03:07:70
  TRACK 143 AUDIO
    TITLE "0:"
    INDEX 01 03:10:37
  TRACK 144 AUDIO
    TITLE "10:cjc171_00972"
    INDEX 01 03:11:19
  TRACK 145 AUDIO
    TITLE "0:"
    INDEX 01 03:13:61
  TRACK 146 AUDIO
    TITLE "8:cjc171_00973"
    INDEX 01 03:14:68
  TRACK 147 AUDIO
    TITLE "0:"
    INDEX 01 03:16:08
  TRACK 148 AUDIO
    TITLE "9:cjc171_00974"
    INDEX 01 03:16:37
  TRACK 149 AUDIO
    TITLE "0:"
    INDEX 01 03:18:68
  TRACK 150 AUDIO
    TITLE "10:cjc171_00975"
    INDEX 01 03:19:48
  TRACK 151 AUDIO
    TITLE "0:"
    INDEX 01 03:22:01
  TRACK 152 AUDIO
    TITLE "8:cjc171_00976"
    INDEX 01 03:23:08
  TRACK 153 AUDIO
    TITLE "0:"
    INDEX 01 03:24:29
  TRACK 154 AUDIO
    TITLE "9:cjc171_00977"
    INDEX 01 03:24:57
  TRACK 155 AUDIO
    TITLE "0:"
    INDEX 01 03:26:42
  TRACK 156 AUDIO
    TITLE "10:cjc171_00978"
    INDEX 01 03:27:20
  TRACK 157 AUDIO
    TITLE "0:"
    INDEX 01 03:29:07
  TRACK 158 AUDIO
    TITLE "8:cjc171_00979"
    INDEX 01 03:30:12
  TRACK 159 AUDIO
    TITLE "0:"
    INDEX 01 03:31:29
  TRACK 160 AUDIO
    TITLE "9:cjc171_00980"
    INDEX 01 03:31:59
  TRACK 161 AUDIO
    TITLE "0:"
    INDEX 01 03:33:67
  TRACK 162 AUDIO
    TITLE "10:cjc171_00981"
    INDEX 01 03:34:47
  TRACK 163 AUDIO
    TITLE "0:"
    INDEX 01 03:36:56
  TRACK 164 AUDIO
    TITLE "8:cjc171_00982"
    INDEX 01 03:37:53
  TRACK 165 AUDIO
    TITLE "0:"
    INDEX 01 03:38:66
  TRACK 166 AUDIO
    TITLE "9:cjc171_00983"
    INDEX 01 03:39:23
  TRACK 167 AUDIO
    TITLE "0:"
    INDEX 01 03:41:18
  TRACK 168 AUDIO
    TITLE "10:cjc171_00984"
    INDEX 01 03:41:75
  TRACK 169 AUDIO
    TITLE "0:"
    INDEX 01 03:43:72
  TRACK 170 AUDIO
    TITLE "8:cjc171_00985"
    INDEX 01 03:45:02
  TRACK 171 AUDIO
    TITLE "0:"
    INDEX 01 03:46:01
  TRACK 172 AUDIO
    TITLE "9:cjc171_00986"
    INDEX 01 03:46:31
  TRACK 173 AUDIO
    TITLE "0:"
    INDEX 01 03:48:41
  TRACK 174 AUDIO
    TITLE "10:cjc171_00987"
    INDEX 01 03:49:21
  TRACK 175 AUDIO
    TITLE "0:"
    INDEX 01 03:51:30
  TRACK 176 AUDIO
    TITLE "8:cjc171_00988"
    INDEX 01 03:52:37
  TRACK 177 AUDIO
    TITLE "0:"
    INDEX 01 03:53:58
  TRACK 178 AUDIO
    TITLE "9:cjc171_00989"
    INDEX 01 03:54:13
  TRACK 179 AUDIO
    TITLE "0:"
    INDEX 01 03:56:47
  TRACK 180 AUDIO
    TITLE "10:cjc171_00990"
    INDEX 01 03:57:25
  TRACK 181 AUDIO
    TITLE "0:"
    INDEX 01 03:59:59
  TRACK 182 AUDIO
    TITLE "8:cjc171_00991"
    INDEX 01 04:00:60
  TRACK 183 AUDIO
    TITLE "0:"
    INDEX 01 04:01:62
  TRACK 184 AUDIO
    TITLE "9:cjc171_00992"
    INDEX 01 04:02:08
  TRACK 185 AUDIO
    TITLE "0:"
    INDEX 01 04:05:28
  TRACK 186 AUDIO
    TITLE "10:cjc171_00993"
    INDEX 01 04:05:73
  TRACK 187 AUDIO
    TITLE "0:"
    INDEX 01 04:09:18
  TRACK 188 AUDIO
    TITLE "8:cjc171_00994"
    INDEX 01 04:10:18
  TRACK 189 AUDIO
    TITLE "0:"
    INDEX 01 04:11:39
  TRACK 190 AUDIO
    TITLE "9:cjc171_00995"
    INDEX 01 04:11:60
  TRACK 191 AUDIO
    TITLE "0:"
    INDEX 01 04:14:25
  TRACK 192 AUDIO
    TITLE "10:cjc171_00996"
    INDEX 01 04:14:72
  TRACK 193 AUDIO
    TITLE "0:"
    INDEX 01 04:17:39
  TRACK 194 AUDIO
    TITLE "8:cjc171_00997"
    INDEX 01 04:18:35
  TRACK 195 AUDIO
    TITLE "0:"
    INDEX 01 04:19:56
  TRACK 196 AUDIO
    TITLE "9:cjc171_00998"
    INDEX 01 04:19:75
  TRACK 197 AUDIO
    TITLE "0:"
    INDEX 01 04:21:68
  TRACK 198 AUDIO
    TITLE "10:cjc171_00999"
    INDEX 01 04:22:36
  TRACK 199 AUDIO
    TITLE "0:"
    INDEX 01 04:24:29
  TRACK 200 AUDIO
    TITLE "8:cjc171_01000"
    INDEX 01 04:25:25
  TRACK 201 AUDIO
    TITLE "0:"
    INDEX 01 04:26:42
  TRACK 202 AUDIO
    TITLE "9:cjc171_01001"
    INDEX 01 04:26:66
  TRACK 203 AUDIO
    TITLE "0:"
    INDEX 01 04:29:01
  TRACK 204 AUDIO
    TITLE "10:cjc171_01002"
    INDEX 01 04:29:48
  TRACK 205 AUDIO
    TITLE "0:"
    INDEX 01 04:31:59
  TRACK 206 AUDIO
    TITLE "8:cjc171_01003"
    INDEX 01 04:32:54
  TRACK 207 AUDIO
    TITLE "0:"
    INDEX 01 04:33:62
  TRACK 208 AUDIO
    TITLE "9:cjc171_01004"
    INDEX 01 04:34:10
  TRACK 209 AUDIO
    TITLE "0:"
    INDEX 01 04:38:73
  TRACK 210 AUDIO
    TITLE "10:cjc171_01005"
    INDEX 01 04:39:43
  TRACK 211 AUDIO
    TITLE "0:"
    INDEX 01 04:44:30
  TRACK 212 AUDIO
    TITLE "8:cjc171_01006"
    INDEX 01 04:45:26
  TRACK 213 AUDIO
    TITLE "0:"
    INDEX 01 04:46:35
  TRACK 214 AUDIO
    TITLE "9:cjc171_01007"
    INDEX 01 04:46:56
  TRACK 215 AUDIO
    TITLE "0:"
    INDEX 01 04:49:06
  TRACK 216 AUDIO
    TITLE "10:cjc171_01008"
    INDEX 01 04:49:51
  TRACK 217 AUDIO
    TITLE "0:"
    INDEX 01 04:51:75
  TRACK 218 AUDIO
    TITLE "8:cjc171_01009"
    INDEX 01 04:52:71
  TRACK 219 AUDIO
    TITLE "0:"
    INDEX 01 04:54:25
  TRACK 220 AUDIO
    TITLE "9:cjc171_01010"
    INDEX 01 04:54:44
  TRACK 221 AUDIO
    TITLE "0:"
    INDEX 01 04:56:49
  TRACK 222 AUDIO
    TITLE "10:cjc171_01011"
    INDEX 01 04:57:21
  TRACK 223 AUDIO
    TITLE "0:"
    INDEX 01 04:59:24
  TRACK 224 AUDIO
    TITLE "8:cjc171_01012"
    INDEX 01 05:00:21
  TRACK 225 AUDIO
    TITLE "0:"
    INDEX 01 05:01:68
  TRACK 226 AUDIO
    TITLE "9:cjc171_01013"
    INDEX 01 05:02:12
  TRACK 227 AUDIO
    TITLE "0:"
    INDEX 01 05:04:50
  TRACK 228 AUDIO
    TITLE "10:cjc171_01014"
    INDEX 01 05:05:21
  TRACK 229 AUDIO
    TITLE "0:"
    INDEX 01 05:07:59
  TRACK 230 AUDIO
    TITLE "8:cjc171_01015"
    INDEX 01 05:08:52
  TRACK 231 AUDIO
    TITLE "0:"
    INDEX 01 05:09:69
  TRACK 232 AUDIO
    TITLE "9:cjc171_01016"
    INDEX 01 05:10:14
  TRACK 233 AUDIO
    TITLE "0:"
    INDEX 01 05:12:19
  TRACK 234 AUDIO
    TITLE "10:cjc171_01017"
    INDEX 01 05:12:66
  TRACK 235 AUDIO
    TITLE "0:"
    INDEX 01 05:14:68
  TRACK 236 AUDIO
    TITLE "8:cjc171_01018"
    INDEX 01 05:15:66
  TRACK 237 AUDIO
    TITLE "0:"
    INDEX 01 05:16:71
  TRACK 238 AUDIO
    TITLE "9:cjc171_01019"
    INDEX 01 05:17:16
  TRACK 239 AUDIO
    TITLE "0:"
    INDEX 01 05:19:17
  TRACK 240 AUDIO
    TITLE "10:cjc171_01020"
    INDEX 01 05:19:64
  TRACK 241 AUDIO
    TITLE "0:"
    INDEX 01 05:21:67
  TRACK 242 AUDIO
    TITLE "8:cjc171_01021"
    INDEX 01 05:22:70
  TRACK 243 AUDIO
    TITLE "0:"
    INDEX 01 05:24:10
  TRACK 244 AUDIO
    TITLE "9:cjc171_01022"
    INDEX 01 05:24:39
  TRACK 245 AUDIO
    TITLE "0:"
    INDEX 01 05:27:06
  TRACK 246 AUDIO
    TITLE "10:cjc171_01023"
    INDEX 01 05:27:63
  TRACK 247 AUDIO
    TITLE "0:"
    INDEX 01 05:30:28
  TRACK 248 AUDIO
    TITLE "8:cjc171_01024"
    INDEX 01 05:31:36
  TRACK 249 AUDIO
    TITLE "0:"
    INDEX 01 05:32:47
  TRACK 250 AUDIO
    TITLE "9:cjc171_01025"
    INDEX 01 05:33:03
  TRACK 251 AUDIO
    TITLE "0:"
    INDEX 01 05:35:29
  TRACK 252 AUDIO
    TITLE "10:cjc171_01026"
    INDEX 01 05:36:09
  TRACK 253 AUDIO
    TITLE "0:"
    INDEX 01 05:38:38
  TRACK 254 AUDIO
    TITLE "8:cjc171_01027"
    INDEX 01 05:39:43
  TRACK 255 AUDIO
    TITLE "0:"
    INDEX 01 05:41:03
  TRACK 256 AUDIO
    TITLE "9:cjc171_01028"
    INDEX 01 05:41:30
  TRACK 257 AUDIO
    TITLE "0:"
    INDEX 01 05:43:70
  TRACK 258 AUDIO
    TITLE "10:cjc171_01029"
    INDEX 01 05:44:48
  TRACK 259 AUDIO
    TITLE "0:"
    INDEX 01 05:47:11
  TRACK 260 AUDIO
    TITLE "8:cjc171_01030"
    INDEX 01 05:48:14
  TRACK 261 AUDIO
    TITLE "0:"
    INDEX 01 05:49:39
  TRACK 262 AUDIO
    TITLE "9:cjc171_01031"
    INDEX 01 05:49:67
  TRACK 263 AUDIO
    TITLE "0:"
    INDEX 01 05:52:36
  TRACK 264 AUDIO
    TITLE "10:cjc171_01032"
    INDEX 01 05:53:12
  TRACK 265 AUDIO
    TITLE "0:"
    INDEX 01 05:55:56
  TRACK 266 AUDIO
    TITLE "8:cjc171_01033"
    INDEX 01 05:56:57
  TRACK 267 AUDIO
    TITLE "0:"
    INDEX 01 05:57:72
  TRACK 268 AUDIO
    TITLE "9:cjc171_01034"
    INDEX 01 05:58:34
  TRACK 269 AUDIO
    TITLE "0:"
    INDEX 01 06:00:31
  TRACK 270 AUDIO
    TITLE "10:cjc171_01035"
    INDEX 01 06:01:09
  TRACK 271 AUDIO
    TITLE "0:"
    INDEX 01 06:03:04
  TRACK 272 AUDIO
    TITLE "8:cjc171_01036"
    INDEX 01 06:04:10
  TRACK 273 AUDIO
    TITLE "0:"
    INDEX 01 06:05:42
  TRACK 274 AUDIO
    TITLE "9:cjc171_01037"
    INDEX 01 06:05:72
  TRACK 275 AUDIO
    TITLE "0:"
    INDEX 01 06:07:55
  TRACK 276 AUDIO
    TITLE "10:cjc171_01038"
    INDEX 01 06:08:35
  TRACK 277 AUDIO
    TITLE "0:"
    INDEX 01 06:10:18
  TRACK 278 AUDIO
    TITLE "8:cjc171_01039"
    INDEX 01 06:11:21
  TRACK 279 AUDIO
    TITLE "0:"
    INDEX 01 06:12:33
  TRACK 280 AUDIO
    TITLE "9:cjc171_01040"
    INDEX 01 06:12:62
  TRACK 281 AUDIO
    TITLE "0:"
    INDEX 01 06:14:41
  TRACK 282 AUDIO
    TITLE "10:cjc171_01041"
    INDEX 01 06:15:23
  TRACK 283 AUDIO
    TITLE "0:"
    INDEX 01 06:16:75
  TRACK 284 AUDIO
    TITLE "8:cjc171_01042"
    INDEX 01 06:18:08
  TRACK 285 AUDIO
    TITLE "0:"
    INDEX 01 06:19:37
  TRACK 286 AUDIO
    TITLE "9:cjc171_01043"
    INDEX 01 06:19:68
  TRACK 287 AUDIO
    TITLE "0:"
    INDEX 01 06:22:06
  TRACK 288 AUDIO
    TITLE "10:cjc171_01044"
    INDEX 01 06:22:60
  TRACK 289 AUDIO
    TITLE "0:"
    INDEX 01 06:24:73
  TRACK 290 AUDIO
    TITLE "8:cjc171_01045"
    INDEX 01 06:26:01
  TRACK 291 AUDIO
    TITLE "0:"
    INDEX 01 06:27:22
  TRACK 292 AUDIO
    TITLE "9:cjc171_01046"
    INDEX 01 06:27:52
  TRACK 293 AUDIO
    TITLE "0:"
    INDEX 01 06:29:58
  TRACK 294 AUDIO
    TITLE "10:cjc171_01047"
    INDEX 01 06:30:36
  TRACK 295 AUDIO
    TITLE "0:"
    INDEX 01 06:32:43
  TRACK 296 AUDIO
    TITLE "8:cjc171_01048"
    INDEX 01 06:33:46
  TRACK 297 AUDIO
    TITLE "0:"
    INDEX 01 06:35:06
  TRACK 298 AUDIO
    TITLE "9:cjc171_01049"
    INDEX 01 06:35:36
  TRACK 299 AUDIO
    TITLE "0:"
    INDEX 01 06:37:34
  TRACK 300 AUDIO
    TITLE "10:cjc171_01050"
    INDEX 01 06:38:14
  TRACK 301 AUDIO
    TITLE "0:"
    INDEX 01 06:40:15
  TRACK 302 AUDIO
    TITLE "8:cjc171_01051"
    INDEX 01 06:41:15
  TRACK 303 AUDIO
    TITLE "0:"
    INDEX 01 06:42:26
  TRACK 304 AUDIO
    TITLE "9:cjc171_01052"
    INDEX 01 06:42:47
  TRACK 305 AUDIO
    TITLE "0:"
    INDEX 01 06:45:71
  TRACK 306 AUDIO
    TITLE "10:cjc171_01053"
    INDEX 01 06:46:41
  TRACK 307 AUDIO
    TITLE "0:"
    INDEX 01 06:49:67
  TRACK 308 AUDIO
    TITLE "8:cjc171_01054"
    INDEX 01 06:50:63
  TRACK 309 AUDIO
    TITLE "0:"
    INDEX 01 06:52:20
  TRACK 310 AUDIO
    TITLE "9:cjc171_01055"
    INDEX 01 06:52:46
  TRACK 311 AUDIO
    TITLE "0:"
    INDEX 01 06:55:44
  TRACK 312 AUDIO
    TITLE "10:cjc171_01056"
    INDEX 01 06:56:12
  TRACK 313 AUDIO
    TITLE "0:"
    INDEX 01 06:59:11
  TRACK 314 AUDIO
    TITLE "8:cjc171_01057"
    INDEX 01 07:00:06
  TRACK 315 AUDIO
    TITLE "0:"
    INDEX 01 07:01:31
  TRACK 316 AUDIO
    TITLE "9:cjc171_01058"
    INDEX 01 07:01:53
  TRACK 317 AUDIO
    TITLE "0:"
    INDEX 01 07:03:71
  TRACK 318 AUDIO
    TITLE "10:cjc171_01059"
    INDEX 01 07:04:39
  TRACK 319 AUDIO
    TITLE "0:"
    INDEX 01 07:06:58
  TRACK 320 AUDIO
    TITLE "8:cjc171_01060"
    INDEX 01 07:07:53
  TRACK 321 AUDIO
    TITLE "0:"
    INDEX 01 07:09:03
  TRACK 322 AUDIO
    TITLE "9:cjc171_01061"
    INDEX 01 07:09:25
  TRACK 323 AUDIO
    TITLE "0:"
    INDEX 01 07:12:07
  TRACK 324 AUDIO
    TITLE "10:cjc171_01062"
    INDEX 01 07:12:52
  TRACK 325 AUDIO
    TITLE "0:"
    INDEX 01 07:15:35
  TRACK 326 AUDIO
    TITLE "8:cjc171_01063"
    INDEX 01 07:16:29
  TRACK 327 AUDIO
    TITLE "0:"
    INDEX 01 07:17:65
  TRACK 328 AUDIO
    TITLE "9:cjc171_01064"
    INDEX 01 07:18:10
  TRACK 329 AUDIO
    TITLE "0:"
    INDEX 01 07:20:44
  TRACK 330 AUDIO
    TITLE "10:cjc171_01065"
    INDEX 01 07:21:14
  TRACK 331 AUDIO
    TITLE "0:"
    INDEX 01 07:23:50
  TRACK 332 AUDIO
    TITLE "8:cjc171_01066"
    INDEX 01 07:24:48
  TRACK 333 AUDIO
    TITLE "0:"
    INDEX 01 07:25:63
  TRACK 334 AUDIO
    TITLE "9:cjc171_01067"
    INDEX 01 07:26:07
  TRACK 335 AUDIO
    TITLE "0:"
    INDEX 01 07:27:68
  TRACK 336 AUDIO
    TITLE "10:cjc171_01068"
    INDEX 01 07:28:40
  TRACK 337 AUDIO
    TITLE "0:"
    INDEX 01 07:30:25
  TRACK 338 AUDIO
    TITLE "8:cjc171_01069"
    INDEX 01 07:31:22
  TRACK 339 AUDIO
    TITLE "0:"
    INDEX 01 07:32:37
  TRACK 340 AUDIO
    TITLE "9:cjc171_01070"
    INDEX 01 07:32:57
  TRACK 341 AUDIO
    TITLE "0:"
    INDEX 01 07:34:54
  TRACK 342 AUDIO
    TITLE "10:cjc171_01071"
    INDEX 01 07:35:22
  TRACK 343 AUDIO
    TITLE "0:"
    INDEX 01 07:37:21
  TRACK 344 AUDIO
    TITLE "8:cjc171_01072"
    INDEX 01 07:38:13
  TRACK 345 AUDIO
    TITLE "0:"
    INDEX 01 07:39:30
  TRACK 346 AUDIO
    TITLE "9:cjc171_01073"
    INDEX 01 07:39:51
  TRACK 347 AUDIO
    TITLE "0:"
    INDEX 01 07:41:52
  TRACK 348 AUDIO
    TITLE "10:cjc171_01074"
    INDEX 01 07:42:20
  TRACK 349 AUDIO
    TITLE "0:"
    INDEX 01 07:44:19
  TRACK 350 AUDIO
    TITLE "8:cjc171_01075"
    INDEX 01 07:45:17
  TRACK 351 AUDIO
    TITLE "0:"
    INDEX 01 07:46:38
  TRACK 352 AUDIO
    TITLE "9:cjc171_01076"
    INDEX 01 07:46:63
  TRACK 353 AUDIO
    TITLE "0:"
    INDEX 01 07:49:24
  TRACK 354 AUDIO
    TITLE "10:cjc171_01077"
    INDEX 01 07:49:73
  TRACK 355 AUDIO
    TITLE "0:"
    INDEX 01 07:52:34
  TRACK 356 AUDIO
    TITLE "8:cjc171_01078"
    INDEX 01 07:53:30
  TRACK 357 AUDIO
    TITLE "0:"
    INDEX 01 07:54:47
  TRACK 358 AUDIO
    TITLE "9:cjc171_01079"
    INDEX 01 07:54:70
  TRACK 359 AUDIO
    TITLE "0:"
    INDEX 01 07:57:57
  TRACK 360 AUDIO
    TITLE "10:cjc171_01080"
    INDEX 01 07:58:27
  TRACK 361 AUDIO
    TITLE "0:"
    INDEX 01 08:01:14
  TRACK 362 AUDIO
    TITLE "8:cjc171_01081"
    INDEX 01 08:02:15
  TRACK 363 AUDIO
    TITLE "0:"
    INDEX 01 08:03:30
  TRACK 364 AUDIO
    TITLE "9:cjc171_01082"
    INDEX 01 08:03:63
  TRACK 365 AUDIO
    TITLE "0:"
    INDEX 01 08:06:38
  TRACK 366 AUDIO
    TITLE "10:cjc171_01083"
    INDEX 01 08:07:18
  TRACK 367 AUDIO
    TITLE "0:"
    INDEX 01 08:09:68
  TRACK 368 AUDIO
    TITLE "8:cjc171_01084"
    INDEX 01 08:10:73
  TRACK 369 AUDIO
    TITLE "0:"
    INDEX 01 08:12:19
  TRACK 370 AUDIO
    TITLE "9:cjc171_01085"
    INDEX 01 08:12:47
  TRACK 371 AUDIO
    TITLE "0:"
    INDEX 01 08:15:59
  TRACK 372 AUDIO
    TITLE "10:cjc171_01086"
    INDEX 01 08:16:41
  TRACK 373 AUDIO
    TITLE "0:"
    INDEX 01 08:19:53
  TRACK 374 AUDIO
    TITLE "8:cjc171_01087"
    INDEX 01 08:20:58
  TRACK 375 AUDIO
    TITLE "0:"
    INDEX 01 08:21:71
  TRACK 376 AUDIO
    TITLE "9:cjc171_01088"
    INDEX 01 08:22:24
  TRACK 377 AUDIO
    TITLE "0:"
    INDEX 01 08:24:52
  TRACK 378 AUDIO
    TITLE "10:cjc171_01089"
    INDEX 01 08:25:30
  TRACK 379 AUDIO
    TITLE "0:"
    INDEX 01 08:27:56
  TRACK 380 AUDIO
    TITLE "8:cjc171_01090"
    INDEX 01 08:28:60
  TRACK 381 AUDIO
    TITLE "0:"
    INDEX 01 08:29:69
  TRACK 382 AUDIO
    TITLE "9:cjc171_01091"
    INDEX 01 08:30:21
  TRACK 383 AUDIO
    TITLE "0:"
    INDEX 01 08:32:48
  TRACK 384 AUDIO
    TITLE "10:cjc171_01092"
    INDEX 01 08:33:27
  TRACK 385 AUDIO
    TITLE "0:"
    INDEX 01 08:35:54
  TRACK 386 AUDIO
    TITLE "8:cjc171_01093"
    INDEX 01 08:36:57
  TRACK 387 AUDIO
    TITLE "0:"
    INDEX 01 08:37:72
  TRACK 388 AUDIO
    TITLE "9:cjc171_01094"
    INDEX 01 08:38:27
  TRACK 389 AUDIO
    TITLE "0:"
    INDEX 01 08:40:37
  TRACK 390 AUDIO
    TITLE "10:cjc171_01095"
    INDEX 01 08:41:17
  TRACK 391 AUDIO
    TITLE "0:"
    INDEX 01 08:43:28
  TRACK 392 AUDIO
    TITLE "8:cjc171_01096"
    INDEX 01 08:44:31
  TRACK 393 AUDIO
    TITLE "0:"
    INDEX 01 08:45:44
  TRACK 394 AUDIO
    TITLE "9:cjc171_01097"
    INDEX 01 08:45:72
  TRACK 395 AUDIO
    TITLE "0:"
    INDEX 01 08:48:25
  TRACK 396 AUDIO
    TITLE "10:cjc171_01098"
    INDEX 01 08:49:05
  TRACK 397 AUDIO
    TITLE "0:"
    INDEX 01 08:51:31
  TRACK 398 AUDIO
    TITLE "8:cjc171_01099"
    INDEX 01 08:52:37
  TRACK 399 AUDIO
    TITLE "0:"
    INDEX 01 08:53:65
  TRACK 400 AUDIO
    TITLE "9:cjc171_01100"
    INDEX 01 08:54:20
  TRACK 401 AUDIO
    TITLE "0:"
    INDEX 01 08:56:48
  TRACK 402 AUDIO
    TITLE "10:cjc171_01101"
    INDEX 01 08:57:30
  TRACK 403 AUDIO
    TITLE "0:"
    INDEX 01 08:59:58
  TRACK 404 AUDIO
    TITLE "8:cjc171_01102"
    INDEX 01 09:00:65
  TRACK 405 AUDIO
    TITLE "0:"
    INDEX 01 09:02:19
  TRACK 406 AUDIO
    TITLE "9:cjc171_01103"
    INDEX 01 09:02:47
  TRACK 407 AUDIO
    TITLE "0:"
    INDEX 01 09:04:53
  TRACK 408 AUDIO
    TITLE "10:cjc171_01104"
    INDEX 01 09:05:33
  TRACK 409 AUDIO
    TITLE "0:"
    INDEX 01 09:07:38
  TRACK 410 AUDIO
    TITLE "8:cjc171_01105"
    INDEX 01 09:08:41
  TRACK 411 AUDIO
    TITLE "0:"
    INDEX 01 09:09:58
  TRACK 412 AUDIO
    TITLE "9:cjc171_01106"
    INDEX 01 09:10:15
  TRACK 413 AUDIO
    TITLE "0:"
    INDEX 01 09:13:05
  TRACK 414 AUDIO
    TITLE "10:cjc171_01107"
    INDEX 01 09:13:60
  TRACK 415 AUDIO
    TITLE "0:"
    INDEX 01 09:16:51
  TRACK 416 AUDIO
    TITLE "8:cjc171_01108"
    INDEX 01 09:17:54
  TRACK 417 AUDIO
    TITLE "0:"
    INDEX 01 09:18:59
  TRACK 418 AUDIO
    TITLE "9:cjc171_01109"
    INDEX 01 09:19:16
  TRACK 419 AUDIO
    TITLE "0:"
    INDEX 01 09:21:13
  TRACK 420 AUDIO
    TITLE "10:cjc171_01110"
    INDEX 01 09:21:69
  TRACK 421 AUDIO
    TITLE "0:"
    INDEX 01 09:23:68
  TRACK 422 AUDIO
    TITLE "8:cjc171_01111"
    INDEX 01 09:24:74
  TRACK 423 AUDIO
    TITLE "0:"
    INDEX 01 09:26:28
  TRACK 424 AUDIO
    TITLE "9:cjc171_01112"
    INDEX 01 09:26:55
  TRACK 425 AUDIO
    TITLE "0:"
    INDEX 01 09:29:34
  TRACK 426 AUDIO
    TITLE "10:cjc171_01113"
    INDEX 01 09:30:04
  TRACK 427 AUDIO
    TITLE "0:"
    INDEX 01 09:32:58
  TRACK 428 AUDIO
    TITLE "8:cjc171_01114"
    INDEX 01 09:33:55
  TRACK 429 AUDIO
    TITLE "0:"
    INDEX 01 09:35:01
  TRACK 430 AUDIO
    TITLE "9:cjc171_01115"
    INDEX 01 09:35:25
  TRACK 431 AUDIO
    TITLE "0:"
    INDEX 01 09:37:57
  TRACK 432 AUDIO
    TITLE "10:cjc171_01116"
    INDEX 01 09:38:29
  TRACK 433 AUDIO
    TITLE "0:"
    INDEX 01 09:40:63
  TRACK 434 AUDIO
    TITLE "8:cjc171_01117"
    INDEX 01 09:41:60
  TRACK 435 AUDIO
    TITLE "0:"
    INDEX 01 09:43:20
  TRACK 436 AUDIO
    TITLE "9:cjc171_01118"
    INDEX 01 09:43:48
  TRACK 437 AUDIO
    TITLE "0:"
    INDEX 01 09:46:50
  TRACK 438 AUDIO
    TITLE "10:cjc171_01119"
    INDEX 01 09:47:26
  TRACK 439 AUDIO
    TITLE "0:"
    INDEX 01 09:50:28
  TRACK 440 AUDIO
    TITLE "8:cjc171_01120"
    INDEX 01 09:51:28
  TRACK 441 AUDIO
    TITLE "0:"
    INDEX 01 09:52:56
  TRACK 442 AUDIO
    TITLE "9:cjc171_01121"
    INDEX 01 09:53:01
  TRACK 443 AUDIO
    TITLE "0:"
    INDEX 01 09:55:39
  TRACK 444 AUDIO
    TITLE "10:cjc171_01122"
    INDEX 01 09:56:09
  TRACK 445 AUDIO
    TITLE "0:"
    INDEX 01 09:58:49
  TRACK 446 AUDIO
    TITLE "8:cjc171_01123"
    INDEX 01 09:59:45
  TRACK 447 AUDIO
    TITLE "0:"
    INDEX 01 10:00:52
  TRACK 448 AUDIO
    TITLE "9:cjc171_01124"
    INDEX 01 10:00:75
  TRACK 449 AUDIO
    TITLE "0:"
    INDEX 01 10:03:11
  TRACK 450 AUDIO
    TITLE "10:cjc171_01125"
    INDEX 01 10:03:64
  TRACK 451 AUDIO
    TITLE "0:"
    INDEX 01 10:06:02
  TRACK 452 AUDIO
    TITLE "8:cjc171_01126"
    INDEX 01 10:07:05
  TRACK 453 AUDIO
    TITLE "0:"
    INDEX 01 10:08:20
  TRACK 454 AUDIO
    TITLE "9:cjc171_01127"
    INDEX 01 10:08:40
  TRACK 455 AUDIO
    TITLE "0:"
    INDEX 01 10:10:70
  TRACK 456 AUDIO
    TITLE "10:cjc171_01128"
    INDEX 01 10:11:40
  TRACK 457 AUDIO
    TITLE "0:"
    INDEX 01 10:13:68
  TRACK 458 AUDIO
    TITLE "8:cjc171_01129"
    INDEX 01 10:14:64
  TRACK 459 AUDIO
    TITLE "0:"
    INDEX 01 10:16:06
  TRACK 460 AUDIO
    TITLE "9:cjc171_01130"
    INDEX 01 10:16:27
  TRACK 461 AUDIO
    TITLE "0:"
    INDEX 01 10:18:60
  TRACK 462 AUDIO
    TITLE "10:cjc171_01131"
    INDEX 01 10:19:36
  TRACK 463 AUDIO
    TITLE "0:"
    INDEX 01 10:21:68
  TRACK 464 AUDIO
    TITLE "8:cjc171_01132"
    INDEX 01 10:22:73
  TRACK 465 AUDIO
    TITLE "0:"
    INDEX 01 10:24:05
  TRACK 466 AUDIO
    TITLE "9:cjc171_01133"
    INDEX 01 10:24:27
  TRACK 467 AUDIO
    TITLE "0:"
    INDEX 01 10:26:30
  TRACK 468 AUDIO
    TITLE "10:cjc171_01134"
    INDEX 01 10:27:06
  TRACK 469 AUDIO
    TITLE "0:"
    INDEX 01 10:29:07
  TRACK 470 AUDIO
    TITLE "8:cjc171_01135"
    INDEX 01 10:30:04
  TRACK 471 AUDIO
    TITLE "0:"
    INDEX 01 10:31:25
  TRACK 472 AUDIO
    TITLE "9:cjc171_01136"
    INDEX 01 10:31:47
  TRACK 473 AUDIO
    TITLE "0:"
    INDEX 01 10:34:21
  TRACK 474 AUDIO
    TITLE "10:cjc171_01137"
    INDEX 01 10:34:66
  TRACK 475 AUDIO
    TITLE "0:"
    INDEX 01 10:37:37
  TRACK 476 AUDIO
    TITLE "8:cjc171_01138"
    INDEX 01 10:38:33
  TRACK 477 AUDIO
    TITLE "0:"
    INDEX 01 10:39:48
  TRACK 478 AUDIO
    TITLE "9:cjc171_01139"
    INDEX 01 10:39:70
  TRACK 479 AUDIO
    TITLE "0:"
    INDEX 01 10:41:70
  TRACK 480 AUDIO
    TITLE "10:cjc171_01140"
    INDEX 01 10:42:42
  TRACK 481 AUDIO
    TITLE "0:"
    INDEX 01 10:44:41
  TRACK 482 AUDIO
    TITLE "8:cjc171_01141"
    INDEX 01 10:45:37
  TRACK 483 AUDIO
    TITLE "0:"
    INDEX 01 10:46:58
  TRACK 484 AUDIO
    TITLE "9:cjc171_01142"
    INDEX 01 10:47:12
  TRACK 485 AUDIO
    TITLE "0:"
    INDEX 01 10:49:37
  TRACK 486 AUDIO
    TITLE "10:cjc171_01143"
    INDEX 01 10:50:15
  TRACK 487 AUDIO
    TITLE "0:"
    INDEX 01 10:52:39
  TRACK 488 AUDIO
    TITLE "8:cjc171_01144"
    INDEX 01 10:53:42
  TRACK 489 AUDIO
    TITLE "0:"
    INDEX 01 10:54:52
  TRACK 490 AUDIO
    TITLE "9:cjc171_01145"
    INDEX 01 10:55:04
  TRACK 491 AUDIO
    TITLE "0:"
    INDEX 01 10:56:64
  TRACK 492 AUDIO
    TITLE "10:cjc171_01146"
    INDEX 01 10:57:42
  TRACK 493 AUDIO
    TITLE "0:"
    INDEX 01 10:59:27
  TRACK 494 AUDIO
    TITLE "8:cjc171_01147"
    INDEX 01 11:00:31
  TRACK 495 AUDIO
    TITLE "0:"
    INDEX 01 11:01:65
  TRACK 496 AUDIO
    TITLE "9:cjc171_01148"
    INDEX 01 11:02:20
  TRACK 497 AUDIO
    TITLE "0:"
    INDEX 01 11:04:28
  TRACK 498 AUDIO
    TITLE "10:cjc171_01149"
    INDEX 01 11:05:10
  TRACK 499 AUDIO
    TITLE "0:"
    INDEX 01 11:07:19
  TRACK 500 AUDIO
    TITLE "8:cjc171_01150"
    INDEX 01 11:08:26
  TRACK 501 AUDIO
    TITLE "0:"
    INDEX 01 11:09:26
  TRACK 502 AUDIO
    TITLE "9:cjc171_01151"
    INDEX 01 11:09:57
  TRACK 503 AUDIO
    TITLE "0:"
    INDEX 01 11:11:46
  TRACK 504 AUDIO
    TITLE "10:cjc171_01152"
    INDEX 01 11:12:24
  TRACK 505 AUDIO
    TITLE "0:"
    INDEX 01 11:14:13
  TRACK 506 AUDIO
    TITLE "8:cjc171_01153"
    INDEX 01 11:15:16
  TRACK 507 AUDIO
    TITLE "0:"
    INDEX 01 11:16:45
  TRACK 508 AUDIO
    TITLE "9:cjc171_01154"
    INDEX 01 11:16:75
  TRACK 509 AUDIO
    TITLE "0:"
    INDEX 01 11:19:06
  TRACK 510 AUDIO
    TITLE "10:cjc171_01155"
    INDEX 01 11:19:63
  TRACK 511 AUDIO
    TITLE "0:"
    INDEX 01 11:21:70
  TRACK 512 AUDIO
    TITLE "8:cjc171_01156"
    INDEX 01 11:22:75
  TRACK 513 AUDIO
    TITLE "0:"
    INDEX 01 11:24:19
  TRACK 514 AUDIO
    TITLE "9:cjc171_01157"
    INDEX 01 11:24:49
  TRACK 515 AUDIO
    TITLE "0:"
    INDEX 01 11:26:38
  TRACK 516 AUDIO
    TITLE "10:cjc171_01158"
    INDEX 01 11:27:18
  TRACK 517 AUDIO
    TITLE "0:"
    INDEX 01 11:29:09
  TRACK 518 AUDIO
    TITLE "8:cjc171_01159"
    INDEX 01 11:30:12
  TRACK 519 AUDIO
    TITLE "0:"
    INDEX 01 11:31:33
  TRACK 520 AUDIO
    TITLE "9:cjc171_01160"
    INDEX 01 11:31:64
  TRACK 521 AUDIO
    TITLE "0:"
    INDEX 01 11:34:30
  TRACK 522 AUDIO
    TITLE "10:cjc171_01161"
    INDEX 01 11:35:09
  TRACK 523 AUDIO
    TITLE "0:"
    INDEX 01 11:37:51
  TRACK 524 AUDIO
    TITLE "8:cjc171_01162"
    INDEX 01 11:38:55
  TRACK 525 AUDIO
    TITLE "0:"
    INDEX 01 11:39:70
  TRACK 526 AUDIO
    TITLE "9:cjc171_01163"
    INDEX 01 11:40:24
  TRACK 527 AUDIO
    TITLE "0:"
    INDEX 01 11:42:15
  TRACK 528 AUDIO
    TITLE "10:cjc171_01164"
    INDEX 01 11:42:70
  TRACK 529 AUDIO
    TITLE "0:"
    INDEX 01 11:44:59
  TRACK 530 AUDIO
    TITLE "8:cjc171_01165"
    INDEX 01 11:45:65
  TRACK 531 AUDIO
    TITLE "0:"
    INDEX 01 11:47:20
  TRACK 532 AUDIO
    TITLE "9:cjc171_01166"
    INDEX 01 11:47:50
  TRACK 533 AUDIO
    TITLE "0:"
    INDEX 01 11:49:72
  TRACK 534 AUDIO
    TITLE "10:cjc171_01167"
    INDEX 01 11:50:52
  TRACK 535 AUDIO
    TITLE "0:"
    INDEX 01 11:52:74
  TRACK 536 AUDIO
    TITLE "8:cjc171_01168"
    INDEX 01 11:54:05
  TRACK 537 AUDIO
    TITLE "0:"
    INDEX 01 11:55:18
  TRACK 538 AUDIO
    TITLE "9:cjc171_01169"
    INDEX 01 11:55:47
  TRACK 539 AUDIO
    TITLE "0:"
    INDEX 01 11:57:27
  TRACK 540 AUDIO
    TITLE "10:cjc171_01170"
    INDEX 01 11:58:07
  TRACK 541 AUDIO
    TITLE "0:"
    INDEX 01 11:59:61
  TRACK 542 AUDIO
    TITLE "8:cjc171_01171"
    INDEX 01 12:00:62
  TRACK 543 AUDIO
    TITLE "0:"
    INDEX 01 12:01:69
  TRACK 544 AUDIO
    TITLE "9:cjc171_01172"
    INDEX 01 12:02:20
  TRACK 545 AUDIO
    TITLE "0:"
    INDEX 01 12:05:16
  TRACK 546 AUDIO
    TITLE "10:cjc171_01173"
    INDEX 01 12:05:67
  TRACK 547 AUDIO
    TITLE "0:"
    INDEX 01 12:08:64
  TRACK 548 AUDIO
    TITLE "8:cjc171_01174"
    INDEX 01 12:09:59
  TRACK 549 AUDIO
    TITLE "0:"
    INDEX 01 12:11:03
  TRACK 550 AUDIO
    TITLE "9:cjc171_01175"
    INDEX 01 12:11:25
  TRACK 551 AUDIO
    TITLE "0:"
    INDEX 01 12:13:39
  TRACK 552 AUDIO
    TITLE "10:cjc171_01176"
    INDEX 01 12:14:09
  TRACK 553 AUDIO
    TITLE "0:"
    INDEX 01 12:16:24
  TRACK 554 AUDIO
    TITLE "8:cjc171_01177"
    INDEX 01 12:17:21
  TRACK 555 AUDIO
    TITLE "0:"
    INDEX 01 12:18:23
  TRACK 556 AUDIO
    TITLE "9:cjc171_01178"
    INDEX 01 12:18:44
  TRACK 557 AUDIO
    TITLE "0:"
    INDEX 01 12:20:22
  TRACK 558 AUDIO
    TITLE "10:cjc171_01179"
    INDEX 01 12:20:69
  TRACK 559 AUDIO
    TITLE "0:"
    INDEX 01 12:22:44
  TRACK 560 AUDIO
    TITLE "8:cjc171_01180"
    INDEX 01 12:23:40
  TRACK 561 AUDIO
    TITLE "0:"
    INDEX 01 12:24:55
  TRACK 562 AUDIO
    TITLE "9:cjc171_01181"
    INDEX 01 12:25:05
  TRACK 563 AUDIO
    TITLE "0:"
    INDEX 01 12:27:61
  TRACK 564 AUDIO
    TITLE "10:cjc171_01182"
    INDEX 01 12:28:33
  TRACK 565 AUDIO
    TITLE "0:"
    INDEX 01 12:31:12
  TRACK 566 AUDIO
    TITLE "8:cjc171_01183"
    INDEX 01 12:32:13
  TRACK 567 AUDIO
    TITLE "0:"
    INDEX 01 12:33:19
  TRACK 568 AUDIO
    TITLE "9:cjc171_01184"
    INDEX 01 12:33:42
  TRACK 569 AUDIO
    TITLE "0:"
    INDEX 01 12:35:53
  TRACK 570 AUDIO
    TITLE "10:cjc171_01185"
    INDEX 01 12:36:23
  TRACK 571 AUDIO
    TITLE "0:"
    INDEX 01 12:38:31
  TRACK 572 AUDIO
    TITLE "8:cjc171_01186"
    INDEX 01 12:39:27
  TRACK 573 AUDIO
    TITLE "0:"
    INDEX 01 12:40:30
  TRACK 574 AUDIO
    TITLE "9:cjc171_01187"
    INDEX 01 12:40:46
  TRACK 575 AUDIO
    TITLE "0:"
    INDEX 01 12:42:53
  TRACK 576 AUDIO
    TITLE "10:cjc171_01188"
    INDEX 01 12:43:21
  TRACK 577 AUDIO
    TITLE "0:"
    INDEX 01 12:45:28
  TRACK 578 AUDIO
    TITLE "8:cjc171_01189"
    INDEX 01 12:46:25
  TRACK 579 AUDIO
    TITLE "0:"
    INDEX 01 12:47:34
  TRACK 580 AUDIO
    TITLE "9:cjc171_01190"
    INDEX 01 12:47:52
  TRACK 581 AUDIO
    TITLE "0:"
    INDEX 01 12:50:07
  TRACK 582 AUDIO
    TITLE "10:cjc171_01191"
    INDEX 01 12:50:58
  TRACK 583 AUDIO
    TITLE "0:"
    INDEX 01 12:53:10
  TRACK 584 AUDIO
    TITLE "8:cjc171_01192"
    INDEX 01 12:54:07
  TRACK 585 AUDIO
    TITLE "0:"
    INDEX 01 12:55:04
  TRACK 586 AUDIO
    TITLE "9:cjc171_01193"
    INDEX 01 12:55:24
  TRACK 587 AUDIO
    TITLE "0:"
    INDEX 01 12:57:46
  TRACK 588 AUDIO
    TITLE "10:cjc171_01194"
    INDEX 01 12:58:19
  TRACK 589 AUDIO
    TITLE "0:"
    INDEX 01 13:00:41
  TRACK 590 AUDIO
    TITLE "8:cjc171_01195"
    INDEX 01 13:01:34
  TRACK 591 AUDIO
    TITLE "0:"
    INDEX 01 13:02:42
  TRACK 592 AUDIO
    TITLE "9:cjc171_01196"
    INDEX 01 13:02:67
  TRACK 593 AUDIO
    TITLE "0:"
    INDEX 01 13:05:22
  TRACK 594 AUDIO
    TITLE "10:cjc171_01197"
    INDEX 01 13:05:69
  TRACK 595 AUDIO
    TITLE "0:"
    INDEX 01 13:08:25
  TRACK 596 AUDIO
    TITLE "8:cjc171_01198"
    INDEX 01 13:09:20
  TRACK 597 AUDIO
    TITLE "0:"
    INDEX 01 13:10:35
  TRACK 598 AUDIO
    TITLE "9:cjc171_01199"
    INDEX 01 13:10:57
  TRACK 599 AUDIO
    TITLE "0:"
    INDEX 01 13:12:52
  TRACK 600 AUDIO
    TITLE "10:cjc171_01200"
    INDEX 01 13:13:22
  TRACK 601 AUDIO
    TITLE "0:"
    INDEX 01 13:15:17
